<?xml version="1.0" standalone="no"?>
<!DOCTYPE svg PUBLIC "-//W3C//DTD SVG 20010904//EN"
 "http://www.w3.org/TR/2001/REC-SVG-20010904/DTD/svg10.dtd">
<svg version="1.0" xmlns="http://www.w3.org/2000/svg"
 width="256.000000pt" height="256.000000pt" viewBox="0 0 256.000000 256.000000"
 preserveAspectRatio="xMidYMid meet">
<metadata>
Created by potrace 1.11, written by Peter Selinger 2001-2013
</metadata>
<g transform="translate(0.000000,256.000000) scale(0.100000,-0.100000)"
fill="#000000" stroke="none">
<path d="M190 2551 c-73 -23 -125 -66 -163 -136 l-22 -40 0 -1095 0 -1095 29
-52 c30 -54 87 -102 145 -121 49 -17 2153 -17 2202 0 58 19 115 67 145 121
l29 52 0 1095 0 1095 -22 40 c-29 54 -65 91 -116 118 l-42 22 -1080 2 c-594 1
-1091 -2 -1105 -6z m1706 -626 c65 -41 104 -105 111 -182 22 -239 -245 -479
-480 -433 l-60 12 -53 -53 -53 -53 187 -180 c103 -100 222 -215 265 -256 l78
-74 -56 -55 -55 -56 -92 90 c-51 49 -171 166 -265 260 l-173 170 -127 -125
c-71 -69 -190 -186 -266 -260 l-137 -135 -55 56 -56 55 371 363 c365 358 371
364 363 395 -4 17 -8 60 -8 96 1 85 43 178 117 256 95 100 198 146 319 142 64
-3 83 -8 125 -33z m-995 -257 l271 -263 -108 -102 c-60 -57 -115 -102 -121
-100 -7 1 -91 80 -187 175 -200 199 -219 228 -220 337 -1 39 5 85 13 105 17
41 63 109 73 110 4 0 130 -118 279 -262z"/>
</g>
</svg>
